<svg width="79" height="24" viewBox="0 0 79 24" fill="none" xmlns="http://www.w3.org/2000/svg">
<path d="M3.688 17.976V11.808H6.4L9.112 17.976H13.12L9.856 11.16C11.752 10.296 13 8.544 13 6.336C13 3.12 10.624 0.887999 7.264 0.887999H-0.0079999V17.976H3.688ZM3.688 4.08H6.688C8.224 4.08 9.184 4.992 9.184 6.36C9.184 7.776 8.176 8.76 6.64 8.76H3.688V4.08ZM20.9528 5.4C17.1128 5.4 14.3528 8.184 14.3528 11.832C14.3528 15.456 17.1128 18.288 20.9528 18.288C24.7928 18.288 27.5528 15.456 27.5528 11.832C27.5528 8.184 24.7928 5.4 20.9528 5.4ZM20.9528 8.64C22.6088 8.64 23.8568 9.912 23.8568 11.832C23.8568 13.752 22.6088 15.048 20.9528 15.048C19.2968 15.048 18.0488 13.752 18.0488 11.832C18.0488 9.912 19.2968 8.64 20.9528 8.64ZM29.7933 14.496C29.7933 17.088 31.3053 18.288 33.6093 18.288C34.3533 18.288 34.8573 18.168 35.3133 17.976V14.976C35.0013 15.096 34.7133 15.12 34.4973 15.12C33.5613 15.12 33.4413 14.496 33.4413 13.824V0.887999H29.7933V14.496ZM37.1995 14.496C37.1995 17.088 38.7115 18.288 41.0155 18.288C41.7595 18.288 42.2635 18.168 42.7195 17.976V14.976C42.4075 15.096 42.1195 15.12 41.9035 15.12C40.9675 15.12 40.8475 14.496 40.8475 13.824V0.887999H37.1995V14.496ZM44.7498 18H48.3978V5.688H44.7498V18ZM46.5258 0.24C45.3978 0.24 44.5098 1.056 44.5098 2.184C44.5098 3.312 45.3978 4.152 46.5258 4.152C47.6538 4.152 48.5658 3.312 48.5658 2.184C48.5658 1.056 47.6538 0.24 46.5258 0.24ZM51.7107 5.688V18H55.3587V11.592C55.3587 9.984 56.1987 8.616 57.7827 8.616C59.1267 8.616 59.9907 9.456 59.9907 11.064V18H63.6387V10.512C63.6387 7.32 61.8147 5.4 58.8627 5.4C57.2067 5.4 56.0067 6.024 55.2147 7.272V5.688H51.7107ZM65.5816 19.752C65.5816 21.768 68.0056 23.088 71.5816 23.088C75.4936 23.088 78.0136 21.36 78.0136 19.128C78.0136 16.992 76.2856 15.48 73.7656 15.48H70.6936C70.1896 15.48 69.7096 15.312 69.7096 14.856C69.7096 14.568 69.9496 14.328 70.4536 14.136C70.6696 14.16 70.9096 14.16 71.1256 14.16C74.0776 14.16 76.3576 12.264 76.3576 9.768C76.3576 9.288 76.2616 8.832 76.0696 8.4H77.8936V5.688H72.8536C72.3016 5.496 71.7496 5.4 71.1736 5.4C68.2216 5.4 65.9896 7.344 65.9896 9.768C65.9896 11.304 66.8296 12.576 68.1016 13.368C67.1656 13.872 66.5416 14.64 66.5416 15.504C66.5416 16.272 66.8296 16.848 67.5256 17.328C66.3976 17.784 65.5816 18.576 65.5816 19.752ZM71.1736 8.04C72.3016 8.04 73.1416 8.784 73.1416 9.768C73.1416 10.728 72.3016 11.52 71.1736 11.52C70.0456 11.52 69.2056 10.728 69.2056 9.768C69.2056 8.784 70.0456 8.04 71.1736 8.04ZM69.1096 19.2C69.1096 18.72 69.4696 18.408 69.8536 18.216H73.1176C73.8136 18.216 74.4616 18.528 74.4616 19.176C74.4616 19.92 73.5256 20.352 71.6056 20.352C70.0936 20.352 69.1096 19.944 69.1096 19.2Z" fill="black"/>
</svg>
